<?xml version="1.0" standalone="no"?>
<!DOCTYPE svg PUBLIC "-//W3C//DTD SVG 20010904//EN"
 "http://www.w3.org/TR/2001/REC-SVG-20010904/DTD/svg10.dtd">
<svg version="1.0" xmlns="http://www.w3.org/2000/svg"
 width="512.000000pt" height="512.000000pt" viewBox="0 0 512.000000 512.000000"
 preserveAspectRatio="xMidYMid meet">
<metadata>
Created by potrace 1.14, written by Peter Selinger 2001-2017
</metadata>
<g transform="translate(0.000000,512.000000) scale(0.100000,-0.100000)"
fill="#000000" stroke="none">
<path d="M2140 4714 c-183 -27 -277 -48 -427 -99 -678 -230 -1203 -786 -1398
-1480 -18 -66 -36 -137 -39 -159 -4 -21 -8 -41 -10 -45 -2 -3 -7 -31 -10 -61
-4 -30 -10 -80 -14 -110 -9 -75 -8 -411 1 -485 14 -110 28 -190 38 -230 6 -22
12 -47 14 -55 9 -49 44 -161 85 -275 29 -80 136 -294 188 -375 47 -73 54 -74
18 -2 -51 102 -142 351 -167 461 -6 25 -13 55 -15 66 -12 49 -44 231 -51 288
-14 109 -7 454 10 542 9 44 19 94 22 110 66 331 206 638 414 905 124 160 347
362 515 467 172 107 398 205 591 253 111 28 139 34 230 45 28 4 61 8 75 11 32
6 358 6 385 0 12 -2 48 -8 80 -12 33 -4 62 -8 65 -9 3 -1 25 -5 50 -9 62 -11
183 -43 255 -67 503 -171 916 -524 1168 -999 103 -195 186 -442 222 -665 3
-16 7 -41 10 -55 10 -53 18 -169 18 -260 0 -94 -11 -299 -18 -310 -1 -3 -6
-27 -9 -54 -28 -204 -108 -471 -207 -684 -22 -46 -39 -87 -39 -90 0 -15 97
151 147 251 86 171 182 452 198 579 4 35 15 100 21 133 6 28 16 176 18 265 7
266 -58 614 -162 865 -35 87 -151 305 -205 386 -202 309 -512 585 -845 753
-197 99 -422 169 -687 211 -79 13 -448 12 -535 -1z"/>
<path d="M2190 4278 c-55 -6 -115 -16 -200 -33 -8 -2 -35 -8 -60 -15 -25 -7
-49 -13 -55 -14 -36 -7 -165 -56 -245 -93 -285 -132 -546 -356 -717 -613 -135
-202 -244 -472 -269 -665 -3 -27 -8 -53 -10 -56 -6 -10 -18 -190 -18 -264 2
-231 54 -478 145 -688 28 -65 137 -262 159 -291 6 -6 38 -47 72 -91 119 -154
313 -326 474 -420 35 -21 64 -42 64 -48 0 -6 -3 -8 -6 -5 -3 3 -31 -1 -62 -9
-31 -8 -64 -16 -72 -18 -316 -64 -805 -244 -1120 -412 -99 -53 -260 -151 -260
-158 0 -2 19 2 43 9 57 18 264 71 312 81 11 2 58 12 105 23 47 11 123 28 170
37 47 9 94 18 105 20 28 6 252 45 295 51 19 3 46 7 60 10 14 2 45 7 70 10 25
3 52 7 60 9 8 3 45 7 81 10 37 3 77 8 90 10 24 5 55 8 174 20 194 19 278 26
360 30 44 2 134 7 200 11 312 18 944 2 1225 -32 19 -2 71 -6 115 -9 44 -3 109
-10 145 -15 92 -14 150 -22 185 -25 17 -2 64 -9 105 -15 41 -6 91 -13 110 -15
19 -3 46 -7 60 -10 14 -3 41 -8 60 -11 19 -3 42 -7 50 -9 8 -2 29 -7 45 -10
17 -2 39 -7 50 -9 11 -2 74 -14 140 -26 66 -11 186 -37 267 -56 80 -19 155
-37 165 -39 10 -2 70 -15 133 -28 63 -14 117 -23 119 -21 2 2 -14 11 -35 21
-22 9 -46 23 -54 29 -41 33 -463 237 -585 283 -77 30 -180 69 -230 89 -49 19
-137 47 -195 63 -58 15 -163 44 -235 64 -130 36 -174 45 -450 91 -168 29 -176
30 -295 39 -141 12 -768 20 -820 11 -14 -2 -72 -7 -130 -11 -57 -4 -108 -9
-112 -12 -12 -6 -109 41 -203 100 -298 185 -528 472 -649 806 -29 82 -62 206
-71 271 -3 25 -8 59 -11 75 -7 41 -7 261 0 310 13 93 18 123 32 180 48 194
138 336 264 417 112 73 403 127 664 123 77 -2 157 -6 176 -9 206 -40 311 -74
450 -148 52 -28 97 -54 98 -59 2 -5 8 -9 14 -9 18 0 133 -95 224 -185 89 -89
204 -234 258 -327 15 -27 30 -48 32 -48 12 0 -119 251 -179 340 -147 221 -332
390 -555 507 -48 25 -89 47 -91 49 -4 3 60 21 108 29 19 3 37 7 40 9 19 12
148 20 291 20 166 0 300 -17 392 -49 61 -21 57 -12 -9 20 -233 110 -503 154
-818 132 l-100 -7 41 19 c42 19 86 68 98 107 5 18 1 24 -25 33 -92 32 -171 -3
-232 -102 -17 -27 -17 -27 9 -37 15 -6 44 -12 65 -13 49 -3 50 -13 2 -20 -53
-8 -82 -15 -133 -30 -42 -12 -65 -11 -165 7 -100 17 -339 23 -470 12 l-50 -5
62 60 c133 125 298 230 488 311 64 26 186 62 289 83 131 28 443 28 586 0 407
-78 810 -350 1019 -688 33 -55 37 -45 4 16 -85 162 -177 284 -322 427 -146
144 -267 231 -446 319 -198 98 -368 149 -585 177 -78 9 -293 11 -370 2z"/>
<path d="M2482 4004 c-49 -59 -54 -129 -14 -182 22 -29 44 -22 72 22 32 53 29
125 -9 175 l-18 23 -31 -38z"/>
<path d="M2713 4013 c-13 -2 -23 -9 -23 -15 0 -26 46 -89 76 -103 34 -16 110
-20 131 -7 16 10 -22 78 -58 104 -26 20 -86 30 -126 21z"/>
<path d="M2210 3970 c-18 -4 -24 -12 -22 -26 11 -61 81 -113 144 -109 18 2 40
3 50 4 12 1 15 7 11 24 -7 28 -48 84 -72 97 -25 13 -81 18 -111 10z"/>
<path d="M3065 3904 c-5 -2 -29 -8 -51 -13 -51 -14 -108 -58 -152 -119 -38
-53 -64 -110 -57 -122 10 -16 119 -32 176 -27 109 10 192 66 234 161 36 80 36
87 -10 103 -38 13 -119 23 -140 17z"/>
<path d="M1983 3870 c-48 -11 -118 -55 -168 -106 -25 -26 -45 -50 -45 -54 0
-4 33 -24 73 -43 123 -60 222 -59 315 5 38 26 102 100 102 117 -1 13 -77 59
-124 74 -52 18 -100 20 -153 7z"/>
<path d="M2667 3858 c-52 -11 -109 -54 -145 -108 -46 -70 -49 -88 -15 -97 54
-15 166 -9 203 11 55 30 106 96 116 151 3 19 -2 25 -28 34 -48 16 -88 18 -131
9z"/>
<path d="M3283 3794 c-36 -15 -70 -52 -78 -86 -6 -23 -3 -28 20 -34 55 -14
108 2 147 45 38 40 50 80 26 82 -62 5 -92 4 -115 -7z"/>
<path d="M3295 3652 c-55 -26 -130 -95 -123 -113 9 -24 99 -62 156 -67 73 -6
132 18 182 75 22 25 40 49 40 52 0 3 -21 19 -46 35 -60 38 -150 46 -209 18z"/>
<path d="M3674 3528 c-34 -65 -10 -152 52 -192 24 -17 25 -17 40 21 32 76 16
139 -45 182 l-30 22 -17 -33z"/>
<path d="M2707 3474 c-82 -21 -79 -17 -51 -73 36 -69 87 -126 141 -157 60 -36
156 -43 233 -17 61 20 65 33 35 97 -61 127 -208 189 -358 150z"/>
<path d="M3456 3465 c-49 -17 -50 -18 -33 -52 39 -75 105 -109 189 -99 76 10
81 14 55 60 -47 83 -129 119 -211 91z"/>
<path d="M3098 3442 c-18 -43 -14 -115 8 -153 11 -19 42 -49 69 -67 45 -31 49
-32 59 -15 17 30 16 133 -1 166 -18 37 -59 73 -96 86 -25 9 -29 8 -39 -17z"/>
<path d="M3276 3403 c-10 -24 -7 -95 5 -138 22 -82 99 -149 182 -160 52 -7 57
0 52 88 -4 62 -22 104 -63 142 -55 53 -166 95 -176 68z"/>
<path d="M3797 3335 c-94 -101 -136 -224 -110 -325 19 -74 96 -190 126 -190
19 0 101 96 123 145 55 119 28 263 -75 394 l-19 25 -45 -49z"/>
<path d="M1813 3308 l-33 -8 25 -56 c47 -105 119 -167 205 -175 54 -5 141 11
147 27 8 22 -25 102 -59 139 -43 50 -108 77 -186 80 -37 1 -82 -2 -99 -7z"/>
<path d="M3990 3246 c0 -63 64 -128 139 -140 l34 -5 -7 45 c-3 25 -13 58 -22
74 -20 32 -72 60 -114 60 -27 0 -30 -3 -30 -34z"/>
<path d="M2290 3234 c-47 -122 -34 -213 39 -284 17 -17 85 -60 94 -60 14 0 47
95 47 139 0 81 -37 147 -113 202 -49 35 -55 36 -67 3z"/>
<path d="M3061 3175 c-18 -20 -35 -51 -38 -68 -7 -30 -7 -39 -4 -85 1 -10 15
-40 31 -66 26 -41 33 -46 46 -35 27 22 63 93 68 134 6 44 -18 109 -51 138 -20
17 -21 17 -52 -18z"/>
<path d="M2548 3112 c-20 -23 -38 -55 -42 -76 -9 -48 17 -136 49 -166 l23 -22
31 42 c39 54 51 97 41 149 -6 33 -51 111 -64 111 -2 0 -19 -17 -38 -38z"/>
<path d="M3293 3089 c-79 -39 -124 -112 -122 -201 1 -59 19 -130 35 -135 20
-7 119 73 148 120 23 38 29 59 29 100 -1 56 -22 128 -38 134 -5 2 -29 -6 -52
-18z"/>
<path d="M2765 2930 c-16 -5 -46 -23 -65 -39 -34 -29 -35 -30 -15 -45 77 -62
157 -71 228 -27 26 17 47 37 47 45 0 8 -16 27 -35 42 -39 30 -108 40 -160 24z"/>
<path d="M2905 2741 c-57 -15 -155 -83 -155 -108 0 -11 58 -49 105 -69 27 -11
59 -15 101 -12 51 3 69 9 107 38 59 45 75 73 55 94 -46 46 -150 74 -213 57z"/>
<path d="M3291 2734 c-29 -8 -57 -17 -62 -20 -22 -13 41 -152 88 -195 94 -86
186 -110 328 -86 66 11 70 14 67 37 -8 80 -113 214 -194 250 -61 27 -158 33
-227 14z"/>
<path d="M3133 2580 c-32 -30 -77 -99 -97 -150 -37 -95 -11 -208 68 -294 32
-35 37 -37 53 -25 36 29 64 66 89 119 24 48 26 62 21 126 -6 83 -35 148 -107
237 -3 4 -16 -2 -27 -13z"/>
<path d="M3301 2419 c-23 -66 -5 -137 46 -185 28 -26 82 -58 88 -52 11 11 22
82 19 117 -5 57 -27 96 -71 126 -50 33 -69 32 -82 -6z"/>
</g>
</svg>
